<svg width="111" height="45" viewBox="0 0 111 45" fill="none" xmlns="http://www.w3.org/2000/svg">
<rect x="1.5" y="1.5" width="108" height="42" rx="6.5" fill="#D6E7B6" stroke="#4C5834" stroke-width="3"/>
<path d="M57.81 30L56.262 26.022H51.168L49.638 30H48L53.022 17.094H54.48L59.484 30H57.81ZM54.336 20.694C54.3 20.598 54.24 20.424 54.156 20.172C54.072 19.92 53.988 19.662 53.904 19.398C53.832 19.122 53.772 18.912 53.724 18.768C53.664 19.008 53.598 19.254 53.526 19.506C53.466 19.746 53.4 19.968 53.328 20.172C53.268 20.376 53.214 20.55 53.166 20.694L51.708 24.582H55.776L54.336 20.694ZM64.4461 30.18C63.2461 30.18 62.2861 29.766 61.5661 28.938C60.8461 28.098 60.4861 26.85 60.4861 25.194C60.4861 23.538 60.8461 22.29 61.5661 21.45C62.2981 20.598 63.2641 20.172 64.4641 20.172C64.9681 20.172 65.4061 20.238 65.7781 20.37C66.1501 20.49 66.4741 20.658 66.7501 20.874C67.0261 21.09 67.2601 21.33 67.4521 21.594H67.5601C67.5481 21.438 67.5241 21.21 67.4881 20.91C67.4641 20.598 67.4521 20.352 67.4521 20.172V16.32H69.0361V30H67.7581L67.5241 28.704H67.4521C67.2601 28.98 67.0261 29.232 66.7501 29.46C66.4741 29.676 66.1441 29.85 65.7601 29.982C65.3881 30.114 64.9501 30.18 64.4461 30.18ZM64.6981 28.866C65.7181 28.866 66.4321 28.59 66.8401 28.038C67.2601 27.474 67.4701 26.628 67.4701 25.5V25.212C67.4701 24.012 67.2721 23.094 66.8761 22.458C66.4801 21.81 65.7481 21.486 64.6801 21.486C63.8281 21.486 63.1861 21.828 62.7541 22.512C62.3341 23.184 62.1241 24.09 62.1241 25.23C62.1241 26.382 62.3341 27.276 62.7541 27.912C63.1861 28.548 63.8341 28.866 64.6981 28.866ZM75.5203 30.18C74.3203 30.18 73.3603 29.766 72.6403 28.938C71.9203 28.098 71.5603 26.85 71.5603 25.194C71.5603 23.538 71.9203 22.29 72.6403 21.45C73.3723 20.598 74.3383 20.172 75.5383 20.172C76.0423 20.172 76.4803 20.238 76.8523 20.37C77.2243 20.49 77.5483 20.658 77.8243 20.874C78.1003 21.09 78.3343 21.33 78.5263 21.594H78.6343C78.6223 21.438 78.5983 21.21 78.5623 20.91C78.5383 20.598 78.5263 20.352 78.5263 20.172V16.32H80.1103V30H78.8323L78.5983 28.704H78.5263C78.3343 28.98 78.1003 29.232 77.8243 29.46C77.5483 29.676 77.2183 29.85 76.8343 29.982C76.4623 30.114 76.0243 30.18 75.5203 30.18ZM75.7723 28.866C76.7923 28.866 77.5063 28.59 77.9143 28.038C78.3343 27.474 78.5443 26.628 78.5443 25.5V25.212C78.5443 24.012 78.3463 23.094 77.9503 22.458C77.5543 21.81 76.8223 21.486 75.7543 21.486C74.9023 21.486 74.2603 21.828 73.8283 22.512C73.4083 23.184 73.1983 24.09 73.1983 25.23C73.1983 26.382 73.4083 27.276 73.8283 27.912C74.2603 28.548 74.9083 28.866 75.7723 28.866Z" fill="black"/>
<path d="M30.4585 23.9166H24.2085V22.0833H30.4585V16.5833H32.5418V22.0833H38.7918V23.9166H32.5418V29.4166H30.4585V23.9166Z" fill="#1D1B20"/>
</svg>
