<svg width="96" height="44" viewBox="0 0 96 44" fill="none" xmlns="http://www.w3.org/2000/svg">
<rect x="0.5" y="2.5" width="95" height="39" rx="7.5" fill="#FF0000" stroke="black"/>
<path d="M22.186 22.448C22.186 23.888 21.91 25.094 21.358 26.066C20.818 27.038 20.032 27.77 19 28.262C17.98 28.754 16.744 29 15.292 29H11.674V16.148H15.67C17.002 16.148 18.154 16.388 19.126 16.868C20.098 17.348 20.848 18.056 21.376 18.992C21.916 19.916 22.186 21.068 22.186 22.448ZM19.774 22.52C19.774 21.5 19.618 20.66 19.306 20C18.994 19.34 18.532 18.854 17.92 18.542C17.308 18.218 16.558 18.056 15.67 18.056H13.978V27.074H15.364C16.852 27.074 17.956 26.696 18.676 25.94C19.408 25.172 19.774 24.032 19.774 22.52ZM28.6359 19.064C29.5119 19.064 30.2619 19.244 30.8859 19.604C31.5219 19.952 32.0139 20.456 32.3619 21.116C32.7099 21.764 32.8839 22.556 32.8839 23.492V24.644H26.4399C26.4639 25.532 26.7099 26.222 27.1779 26.714C27.6459 27.194 28.2939 27.434 29.1219 27.434C29.7579 27.434 30.3219 27.374 30.8139 27.254C31.3179 27.122 31.8339 26.936 32.3619 26.696V28.514C31.8819 28.742 31.3839 28.91 30.8679 29.018C30.3519 29.126 29.7339 29.18 29.0139 29.18C28.0659 29.18 27.2199 29 26.4759 28.64C25.7439 28.268 25.1679 27.71 24.7479 26.966C24.3399 26.222 24.1359 25.298 24.1359 24.194C24.1359 23.078 24.3219 22.142 24.6939 21.386C25.0779 20.618 25.6059 20.042 26.2779 19.658C26.9499 19.262 27.7359 19.064 28.6359 19.064ZM28.6359 20.738C28.0359 20.738 27.5439 20.936 27.1599 21.332C26.7879 21.716 26.5659 22.292 26.4939 23.06H30.6879C30.6879 22.604 30.6099 22.202 30.4539 21.854C30.3099 21.506 30.0879 21.236 29.7879 21.044C29.4879 20.84 29.1039 20.738 28.6359 20.738ZM37.4389 29H35.1709V15.32H37.4389V29ZM44.2629 19.064C45.1389 19.064 45.8889 19.244 46.5129 19.604C47.1489 19.952 47.6409 20.456 47.9889 21.116C48.3369 21.764 48.5109 22.556 48.5109 23.492V24.644H42.0669C42.0909 25.532 42.3369 26.222 42.8049 26.714C43.2729 27.194 43.9209 27.434 44.7489 27.434C45.3849 27.434 45.9489 27.374 46.4409 27.254C46.9449 27.122 47.4609 26.936 47.9889 26.696V28.514C47.5089 28.742 47.0109 28.91 46.4949 29.018C45.9789 29.126 45.3609 29.18 44.6409 29.18C43.6929 29.18 42.8469 29 42.1029 28.64C41.3709 28.268 40.7949 27.71 40.3749 26.966C39.9669 26.222 39.7629 25.298 39.7629 24.194C39.7629 23.078 39.9489 22.142 40.3209 21.386C40.7049 20.618 41.2329 20.042 41.9049 19.658C42.5769 19.262 43.3629 19.064 44.2629 19.064ZM44.2629 20.738C43.6629 20.738 43.1709 20.936 42.7869 21.332C42.4149 21.716 42.1929 22.292 42.1209 23.06H46.3149C46.3149 22.604 46.2369 22.202 46.0809 21.854C45.9369 21.506 45.7149 21.236 45.4149 21.044C45.1149 20.84 44.7309 20.738 44.2629 20.738ZM54.5778 27.362C54.8658 27.362 55.1418 27.338 55.4058 27.29C55.6698 27.23 55.9158 27.164 56.1438 27.092V28.784C55.9038 28.892 55.5918 28.982 55.2078 29.054C54.8238 29.138 54.4218 29.18 54.0018 29.18C53.4498 29.18 52.9458 29.09 52.4898 28.91C52.0458 28.718 51.6858 28.394 51.4098 27.938C51.1458 27.482 51.0138 26.846 51.0138 26.03V20.954H49.6998V19.964L51.1398 19.172L51.8598 17.102H53.2818V19.244H56.0538V20.954H53.2818V26.012C53.2818 26.468 53.4018 26.81 53.6418 27.038C53.8818 27.254 54.1938 27.362 54.5778 27.362ZM62.0343 19.064C62.9103 19.064 63.6603 19.244 64.2843 19.604C64.9203 19.952 65.4123 20.456 65.7603 21.116C66.1083 21.764 66.2823 22.556 66.2823 23.492V24.644H59.8383C59.8623 25.532 60.1083 26.222 60.5763 26.714C61.0443 27.194 61.6923 27.434 62.5203 27.434C63.1563 27.434 63.7203 27.374 64.2123 27.254C64.7163 27.122 65.2323 26.936 65.7603 26.696V28.514C65.2803 28.742 64.7823 28.91 64.2663 29.018C63.7503 29.126 63.1323 29.18 62.4123 29.18C61.4643 29.18 60.6183 29 59.8743 28.64C59.1423 28.268 58.5663 27.71 58.1463 26.966C57.7383 26.222 57.5343 25.298 57.5343 24.194C57.5343 23.078 57.7203 22.142 58.0923 21.386C58.4763 20.618 59.0043 20.042 59.6763 19.658C60.3483 19.262 61.1343 19.064 62.0343 19.064ZM62.0343 20.738C61.4343 20.738 60.9423 20.936 60.5583 21.332C60.1863 21.716 59.9643 22.292 59.8923 23.06H64.0863C64.0863 22.604 64.0083 22.202 63.8523 21.854C63.7083 21.506 63.4863 21.236 63.1863 21.044C62.8863 20.84 62.5023 20.738 62.0343 20.738Z" fill="black"/>
<path d="M71.25 17.5H72.75M72.75 17.5H84.75M72.75 17.5V28C72.75 28.3978 72.908 28.7794 73.1893 29.0607C73.4706 29.342 73.8522 29.5 74.25 29.5H81.75C82.1478 29.5 82.5294 29.342 82.8107 29.0607C83.092 28.7794 83.25 28.3978 83.25 28V17.5M75 17.5V16C75 15.6022 75.158 15.2206 75.4393 14.9393C75.7206 14.658 76.1022 14.5 76.5 14.5H79.5C79.8978 14.5 80.2794 14.658 80.5607 14.9393C80.842 15.2206 81 15.6022 81 16V17.5M76.5 21.25V25.75M79.5 21.25V25.75" stroke="black" stroke-width="2.5" stroke-linecap="round" stroke-linejoin="round"/>
</svg>
