<svg width="94" height="44" viewBox="0 0 94 44" fill="none" xmlns="http://www.w3.org/2000/svg">
<rect x="1.5" y="3.5" width="91" height="37" rx="6.5" fill="white" stroke="#5C5C5C" stroke-width="3"/>
<path d="M51.928 29H44.746V16.148H51.928V17.57H46.366V21.584H51.604V22.988H46.366V27.578H51.928V29ZM57.952 29.18C56.752 29.18 55.792 28.766 55.072 27.938C54.352 27.098 53.992 25.85 53.992 24.194C53.992 22.538 54.352 21.29 55.072 20.45C55.804 19.598 56.77 19.172 57.97 19.172C58.474 19.172 58.912 19.238 59.284 19.37C59.656 19.49 59.98 19.658 60.256 19.874C60.532 20.09 60.766 20.33 60.958 20.594H61.066C61.054 20.438 61.03 20.21 60.994 19.91C60.97 19.598 60.958 19.352 60.958 19.172V15.32H62.542V29H61.264L61.03 27.704H60.958C60.766 27.98 60.532 28.232 60.256 28.46C59.98 28.676 59.65 28.85 59.266 28.982C58.894 29.114 58.456 29.18 57.952 29.18ZM58.204 27.866C59.224 27.866 59.938 27.59 60.346 27.038C60.766 26.474 60.976 25.628 60.976 24.5V24.212C60.976 23.012 60.778 22.094 60.382 21.458C59.986 20.81 59.254 20.486 58.186 20.486C57.334 20.486 56.692 20.828 56.26 21.512C55.84 22.184 55.63 23.09 55.63 24.23C55.63 25.382 55.84 26.276 56.26 26.912C56.692 27.548 57.34 27.866 58.204 27.866ZM67.1902 19.352V29H65.6062V19.352H67.1902ZM66.4162 15.734C66.6562 15.734 66.8662 15.818 67.0462 15.986C67.2382 16.142 67.3342 16.394 67.3342 16.742C67.3342 17.078 67.2382 17.33 67.0462 17.498C66.8662 17.666 66.6562 17.75 66.4162 17.75C66.1522 17.75 65.9302 17.666 65.7502 17.498C65.5702 17.33 65.4802 17.078 65.4802 16.742C65.4802 16.394 65.5702 16.142 65.7502 15.986C65.9302 15.818 66.1522 15.734 66.4162 15.734ZM73.4688 27.884C73.7088 27.884 73.9548 27.866 74.2068 27.83C74.4588 27.782 74.6628 27.734 74.8188 27.686V28.892C74.6508 28.976 74.4108 29.042 74.0988 29.09C73.7868 29.15 73.4868 29.18 73.1988 29.18C72.6948 29.18 72.2268 29.096 71.7948 28.928C71.3748 28.748 71.0328 28.442 70.7688 28.01C70.5048 27.578 70.3728 26.972 70.3728 26.192V20.576H69.0048V19.82L70.3908 19.19L71.0208 17.138H71.9568V19.352H74.7468V20.576H71.9568V26.156C71.9568 26.744 72.0948 27.182 72.3708 27.47C72.6588 27.746 73.0248 27.884 73.4688 27.884Z" fill="black"/>
<path d="M20.5833 29.4167H21.8896L30.85 20.4563L29.5438 19.15L20.5833 28.1104V29.4167ZM18.75 31.25V27.3542L30.85 15.2771C31.0333 15.109 31.2358 14.9792 31.4573 14.8875C31.6788 14.7958 31.9118 14.75 32.1563 14.75C32.4007 14.75 32.6375 14.7958 32.8667 14.8875C33.0958 14.9792 33.2944 15.1167 33.4625 15.3L34.7229 16.5833C34.9063 16.7514 35.0399 16.95 35.124 17.1792C35.208 17.4083 35.25 17.6375 35.25 17.8667C35.25 18.1111 35.208 18.3441 35.124 18.5656C35.0399 18.7872 34.9063 18.9896 34.7229 19.1729L22.6458 31.25H18.75ZM30.1854 19.8146L29.5438 19.15L30.85 20.4563L30.1854 19.8146Z" fill="#1D1B20"/>
</svg>
