<<<<<<< HEAD
<svg width="32" height="32" viewBox="0 0 32 32" fill="none" xmlns="http://www.w3.org/2000/svg">
<path d="M12 29.3333V16H20V29.3333M4 12L16 2.66667L28 12V26.6667C28 27.3739 27.719 28.0522 27.219 28.5523C26.7189 29.0524 26.0406 29.3333 25.3333 29.3333H6.66667C5.95942 29.3333 5.28115 29.0524 4.78105 28.5523C4.28095 28.0522 4 27.3739 4 26.6667V12Z" stroke="#596B37" stroke-width="3" stroke-linecap="round" stroke-linejoin="round"/>
=======
<svg width="22" height="22" viewBox="0 0 22 22" fill="none" xmlns="http://www.w3.org/2000/svg">
<path d="M8.25 20.1667V11H13.75V20.1667M2.75 8.25L11 1.83333L19.25 8.25V18.3333C19.25 18.8196 19.0568 19.2859 18.713 19.6297C18.3692 19.9735 17.9029 20.1667 17.4167 20.1667H4.58333C4.0971 20.1667 3.63079 19.9735 3.28697 19.6297C2.94315 19.2859 2.75 18.8196 2.75 18.3333V8.25Z" stroke="#1A2700" stroke-width="3" stroke-linecap="round" stroke-linejoin="round"/>
>>>>>>> abe4b13af3510960eb53516038e923370c0abc5b
</svg>
