<svg width="288" height="36" viewBox="0 0 288 36" fill="none" xmlns="http://www.w3.org/2000/svg">
<path d="M115.189 11.0901H119.745L120.825 6.09313L127.595 3.86866L126.044 11.0901H131.68L130.696 15.7218H125.06L122.761 26.3498C122.579 27.1236 122.483 27.9188 122.483 28.714C122.483 30.1755 123.467 31.0782 124.878 31.0782C126.012 31.0782 127.135 30.8418 127.937 30.5087L126.857 35.4197C125.777 35.6561 124.558 35.9893 123.477 35.9893C119.2 35.9893 116.195 34.2913 116.195 29.6167C116.195 27.7254 116.569 25.8878 116.997 23.9427L118.783 15.7325H114.227L115.189 11.0901Z" fill="#F7F9EF"/>
<path d="M73.3208 0H79.6198L75.4382 19.9236H75.5345L84.3253 11.0901H92.4958L80.8817 22.191L88.1646 35.409H81.0742L74.8287 22.5134H74.7324L72.0053 35.409H65.8561L73.3208 0Z" fill="#F7F9EF"/>
<path d="M0.983884 11.0901H5.5397L6.63052 6.09313L13.3894 3.86866L11.8387 11.0901H17.4746L16.4908 15.7218H10.8548L8.55552 26.3498C8.36302 27.1236 8.26677 27.9188 8.26677 28.714C8.26677 30.1755 9.25065 31.0782 10.6623 31.0782C11.7959 31.0782 12.9188 30.8418 13.7209 30.5087L12.6408 35.4197C11.5606 35.6561 10.3415 35.9893 9.26134 35.9893C4.98359 35.9893 1.97846 34.2913 1.97846 29.6167C1.97846 27.7254 2.35277 25.8878 2.78054 23.9427L4.56651 15.7325H0L0.983884 11.0901Z" fill="#F7F9EF"/>
<path d="M185.259 31.7015H185.163C183.002 34.4418 180.842 36 177.367 36C172.992 36 169.902 33.5499 169.902 29.0579C169.902 21.0304 178.832 20.4179 184.746 20.4179H186.949C187.141 19.7624 187.141 19.0531 187.141 18.3439C187.141 15.8937 184.51 15.1845 182.297 15.1845C179.527 15.1845 176.842 15.8937 174.351 17.0758L175.249 12.0251C177.933 11.0794 180.65 10.5636 183.473 10.5636C188.307 10.5636 192.873 12.3582 192.873 18.0645C192.873 21.3206 190.478 30.8633 189.911 35.4412H184.607L185.259 31.7015ZM179.099 31.3791C183.794 31.3791 185.248 28.123 186.243 24.2006H184.029C180.971 24.2006 175.901 24.7164 175.901 28.8322C175.901 30.5301 177.506 31.3791 179.099 31.3791Z" fill="#F7F9EF"/>
<path d="M32.0996 31.7015H32.0033C29.843 34.4418 27.6828 36 24.2071 36C19.8331 36 16.7424 33.5499 16.7424 29.0579C16.7424 21.0304 25.6722 20.4179 31.5862 20.4179H33.7893C33.9818 19.7624 33.9818 19.0531 33.9818 18.3439C33.9818 15.8937 31.3509 15.1845 29.1372 15.1845C26.3674 15.1845 23.6831 15.8937 21.1913 17.0758L22.0896 12.0251C24.7739 11.0794 27.4903 10.5636 30.3136 10.5636C35.1475 10.5636 39.714 12.3582 39.714 18.0645C39.714 21.3206 37.3184 30.8633 36.7516 35.4412H31.4472L32.0996 31.7015ZM25.9396 31.3791C30.6344 31.3791 32.0889 28.123 33.0834 24.2006H30.8697C27.8111 24.2006 22.742 24.7164 22.742 28.8322C22.742 30.5301 24.3461 31.3791 25.9396 31.3791Z" fill="#F7F9EF"/>
<path d="M282.557 9.6394C285.551 9.6394 288 12.0896 288 15.1093C288 18.1182 285.551 20.5791 282.557 20.5791C279.562 20.5791 277.113 18.129 277.113 15.1093C277.113 12.1003 279.562 9.6394 282.557 9.6394ZM282.567 19.7624C285.07 19.7624 286.952 17.7313 286.952 15.1093C286.952 12.4872 285.059 10.4561 282.567 10.4561C280.033 10.4561 278.15 12.4872 278.15 15.1093C278.15 17.7313 280.043 19.7624 282.567 19.7624ZM280.482 11.8961H282.92C284.385 11.8961 285.102 12.4872 285.102 13.7015C285.102 14.7331 284.46 15.4746 283.455 15.4746L285.273 18.3116H284.171L282.385 15.4746H281.509V18.3116H280.471V11.8961H280.482ZM281.519 14.6579H282.749C283.551 14.6579 284.064 14.4967 284.064 13.6585C284.064 12.9278 283.412 12.7128 282.749 12.7128H281.519V14.6579Z" fill="#F7F9EF"/>
<path d="M253.917 19.7839C253.917 13.594 249.971 10.5313 244.003 10.5313C236.057 10.5313 230.229 17.8066 230.229 25.3612C230.229 32.5827 234.924 35.9893 241.886 35.9893C244.463 35.9893 247.147 35.3767 249.596 34.6245L250.399 29.6167C248.046 30.7021 245.565 31.3576 242.977 31.3576C238.945 31.3576 236.592 29.9176 236.293 26.0919C236.282 25.8663 236.261 25.6513 236.261 25.4257C236.261 25.3827 236.271 25.3397 236.271 25.286V25.2107H236.282C236.303 23.5451 236.667 21.9009 237.309 20.3857C238.517 17.2907 240.228 15.1522 243.939 15.1522C246.57 15.1522 247.939 16.6137 247.939 19.2143C247.939 19.7839 247.885 20.2997 247.8 20.8693H239.18C238.624 22.7821 238.528 24.0609 238.506 25.2107H253.339C253.682 23.4161 253.917 21.6215 253.917 19.7839Z" fill="#F7F9EF"/>
<path d="M258.28 14.357C258.473 13.3146 258.655 12.2293 258.847 11.1009H264.857L264.012 15.6788H264.109C265.242 13.0352 268.344 10.5313 271.253 10.5313C272.055 10.5313 272.9 10.5743 273.648 10.7678L272.333 16.9576C271.627 16.7212 270.739 16.5815 269.937 16.5815C265.467 16.5815 263.307 20.6006 262.515 24.5122L260.259 35.4197H253.96L258.28 14.357Z" fill="#F7F9EF"/>
<path d="M215.588 11.0901H220.144L221.224 6.09313L227.994 3.86866L226.443 11.0901H232.079L231.084 15.7218H225.448L223.149 26.3498C222.957 27.1236 222.871 27.9188 222.86 28.714C222.86 30.1755 223.844 31.0782 225.256 31.0782C226.39 31.0782 227.512 30.8418 228.304 30.5087L227.224 35.4197C226.144 35.6561 224.924 35.9893 223.844 35.9893C219.567 35.9893 216.561 34.2913 216.561 29.6167C216.561 27.7254 216.936 25.8878 217.364 23.9427L219.149 15.7325H214.604L215.588 11.0901Z" fill="#F7F9EF"/>
<path d="M211.567 16.0442C210.893 15.6788 209.15 15.1522 207.364 15.1522C205.482 15.1522 203.14 15.6788 203.14 17.6024C203.14 20.6758 211.31 21.8042 211.31 27.7576C211.31 34.0872 205.814 35.9678 200.402 35.9678C197.868 35.9678 195.333 35.5916 193.023 34.5063L194.381 29.4555C196.167 30.4442 197.953 31.3469 200.392 31.3469C202.509 31.3469 204.712 30.6376 204.712 28.6603C204.712 24.7379 196.542 24.3618 196.542 18.2687C196.542 12.5516 202.038 10.5206 207.022 10.5206C209.321 10.5206 211.674 10.9505 212.915 11.2728L211.567 16.0442Z" fill="#F7F9EF"/>
<path d="M134.407 13.7875C134.589 12.8418 134.781 11.8531 134.92 11.0902H140.792L140.225 14.3463H140.321C142.011 11.8424 144.781 10.5206 147.743 10.5206C150.609 10.5206 153.571 12.2185 153.903 15.1415H153.999C155.603 11.9821 159.122 10.5206 162.501 10.5206C166.116 10.5206 169.228 13.4973 169.228 17.1833C169.228 19.354 168.661 21.8149 168.148 23.7922L165.613 35.409H159.314L161.849 23.5558C162.17 22.0943 162.64 19.8269 162.64 18.3654C162.64 16.5707 161.282 15.4424 159.678 15.4424C155.304 15.4424 154.224 20.5469 153.432 23.846L150.941 35.4197H144.642L147.176 23.5666C147.508 22.1051 147.978 19.8376 147.978 18.3761C147.978 16.5815 146.62 15.4531 145.016 15.4531C140.738 15.4531 139.562 20.6006 138.77 23.8567L136.279 35.4305H129.98L134.407 13.7875Z" fill="#F7F9EF"/>
<path d="M113.083 19.7839C113.083 13.594 109.136 10.5313 103.169 10.5313C95.2229 10.5313 89.4051 17.8066 89.4051 25.3612C89.4051 32.5827 94.1 35.9893 101.062 35.9893C103.65 35.9893 106.324 35.3767 108.762 34.6245L109.564 29.6167C107.211 30.7021 104.719 31.3576 102.142 31.3576C98.1104 31.3576 95.7576 29.9176 95.4582 26.0919C95.4475 25.8663 95.4261 25.6513 95.4261 25.4257V25.2107C95.4581 23.5558 95.8111 21.9116 96.4527 20.3857C97.6612 17.2907 99.3723 15.1522 103.083 15.1522C105.714 15.1522 107.083 16.6137 107.083 19.2143C107.083 19.7839 107.029 20.2997 106.944 20.8693H98.3242C97.7681 22.7821 97.6719 24.0609 97.6505 25.2107H112.473C112.847 23.4161 113.083 21.6215 113.083 19.7839Z" fill="#F7F9EF"/>
<path d="M65.6477 19.7839C65.6477 13.594 61.7015 10.5313 55.734 10.5313C47.7881 10.5313 41.9703 17.8066 41.9703 25.3612C41.9703 32.5827 46.6652 35.9893 53.6272 35.9893C56.2153 35.9893 58.8889 35.3767 61.3272 34.6245L62.1293 29.6167C59.7765 30.7021 57.2847 31.3576 54.7073 31.3576C50.6756 31.3576 48.3228 29.9176 48.0233 26.0919C48.0127 25.8663 47.9913 25.6513 47.9913 25.4257V25.2107C48.0233 23.5558 48.3763 21.9116 49.0179 20.3857C50.2264 17.2907 51.9375 15.1522 55.6484 15.1522C58.2793 15.1522 59.6482 16.6137 59.6482 19.2143C59.6482 19.7839 59.5947 20.2997 59.5091 20.8693H50.8894C50.3333 22.7821 50.2371 24.0609 50.2157 25.2107H65.0381C65.4124 23.4161 65.6477 21.6215 65.6477 19.7839Z" fill="#F7F9EF"/>
</svg>
