<svg width="371" height="46" viewBox="0 0 371 46" fill="none" xmlns="http://www.w3.org/2000/svg">
<g clip-path="url(#clip0_300_536)">
<path d="M148.386 14.1707H154.255L155.646 7.78567L164.367 4.94328L162.369 14.1707H169.629L168.362 20.089H161.102L158.14 33.6693C157.906 34.6579 157.782 35.674 157.782 36.6901C157.782 38.5576 159.049 39.711 160.868 39.711C162.328 39.711 163.774 39.409 164.808 38.9833L163.416 45.2585C162.025 45.5606 160.454 45.9863 159.063 45.9863C153.552 45.9863 149.681 43.8167 149.681 37.8436C149.681 35.4269 150.163 33.0788 150.714 30.5934L153.015 20.1027H147.146L148.386 14.1707Z" fill="#596B37"/>
<path d="M94.4514 0H102.566L97.1792 25.4579H97.3031L108.627 14.1707H119.153L104.191 28.3552L113.573 45.2448H104.439L96.3939 28.7672H96.2699L92.7569 45.2448H84.8354L94.4514 0Z" fill="#596B37"/>
<path d="M1.26743 14.1707H7.13621L8.5414 7.78567L17.2481 4.94328L15.2505 14.1707H22.5107L21.2433 20.089H13.9831L11.0212 33.6693C10.7732 34.6579 10.6492 35.674 10.6492 36.6901C10.6492 38.5576 11.9166 39.711 13.7351 39.711C15.1954 39.711 16.642 39.409 17.6752 38.9833L16.2838 45.2585C14.8924 45.5606 13.3218 45.9863 11.9304 45.9863C6.41983 45.9863 2.54864 43.8167 2.54864 37.8436C2.54864 35.4269 3.03082 33.0788 3.58188 30.5934L5.88255 20.1027H0L1.26743 14.1707Z" fill="#596B37"/>
<path d="M238.65 40.5075H238.526C235.743 44.009 232.96 46 228.483 46C222.848 46 218.867 42.8693 218.867 37.1296C218.867 26.8722 230.37 26.0896 237.988 26.0896H240.826C241.074 25.2519 241.074 24.3457 241.074 23.4394C241.074 20.3087 237.685 19.4024 234.834 19.4024C231.266 19.4024 227.808 20.3087 224.598 21.8191L225.755 15.3654C229.213 14.157 232.712 13.4979 236.349 13.4979C242.576 13.4979 248.459 15.791 248.459 23.0824C248.459 27.243 245.373 39.4364 244.642 45.286H237.809L238.65 40.5075ZM230.714 40.0955C236.762 40.0955 238.636 35.9349 239.917 30.923H237.065C233.125 30.923 226.595 31.5821 226.595 36.8412C226.595 39.0107 228.662 40.0955 230.714 40.0955Z" fill="#596B37"/>
<path d="M41.3504 40.5075H41.2264C38.4435 44.009 35.6607 46 31.1834 46C25.5488 46 21.5674 42.8693 21.5674 37.1296C21.5674 26.8722 33.0707 26.0896 40.6891 26.0896H43.5271C43.775 25.2519 43.775 24.3457 43.775 23.4394C43.775 20.3087 40.386 19.4024 37.5343 19.4024C33.9662 19.4024 30.5083 20.3087 27.2984 21.8191L28.4556 15.3654C31.9135 14.157 35.4127 13.4979 39.0497 13.4979C45.2767 13.4979 51.1592 15.791 51.1592 23.0824C51.1592 27.243 48.0733 39.4364 47.3431 45.286H40.51L41.3504 40.5075ZM33.4151 40.0955C39.463 40.0955 41.3366 35.9349 42.6178 30.923H39.7661C35.826 30.923 29.296 31.5821 29.296 36.8412C29.296 39.0107 31.3624 40.0955 33.4151 40.0955Z" fill="#596B37"/>
<path d="M363.988 12.317C367.845 12.317 371 15.4478 371 19.3063C371 23.151 367.845 26.2955 363.988 26.2955C360.13 26.2955 356.976 23.1648 356.976 19.3063C356.976 15.4615 360.13 12.317 363.988 12.317ZM364.002 25.2519C367.225 25.2519 369.65 22.6567 369.65 19.3063C369.65 15.9558 367.211 13.3606 364.002 13.3606C360.737 13.3606 358.312 15.9558 358.312 19.3063C358.312 22.6567 360.75 25.2519 364.002 25.2519ZM361.315 15.2006H364.456C366.344 15.2006 367.267 15.9558 367.267 17.5075C367.267 18.8257 366.44 19.7731 365.145 19.7731L367.487 23.3982H366.068L363.767 19.7731H362.638V23.3982H361.301V15.2006H361.315ZM362.651 18.7296H364.236C365.269 18.7296 365.93 18.5236 365.93 17.4525C365.93 16.5188 365.09 16.2442 364.236 16.2442H362.651V18.7296Z" fill="#596B37"/>
<path d="M327.094 25.2794C327.094 17.3701 322.011 13.4567 314.324 13.4567C304.088 13.4567 296.58 22.7528 296.58 32.406C296.58 41.6334 302.627 45.9863 311.596 45.9863C314.916 45.9863 318.374 45.2036 321.529 44.2424L322.562 37.8436C319.531 39.2304 316.335 40.0681 313.001 40.0681C307.807 40.0681 304.777 38.2281 304.391 33.3397C304.377 33.0513 304.35 32.7767 304.35 32.4884C304.35 32.4334 304.363 32.3785 304.363 32.3098V32.2137H304.377C304.405 30.0854 304.873 27.9845 305.7 26.0484C307.256 22.0937 309.461 19.3612 314.241 19.3612C317.63 19.3612 319.393 21.2287 319.393 24.5516C319.393 25.2794 319.325 25.9385 319.214 26.6663H308.11C307.394 29.1104 307.27 30.7445 307.243 32.2137H326.351C326.791 29.9206 327.094 27.6275 327.094 25.2794Z" fill="#596B37"/>
<path d="M332.715 18.3451C332.963 17.0131 333.197 15.6263 333.445 14.1845H341.188L340.099 20.034H340.223C341.684 16.6561 345.679 13.4567 349.426 13.4567C350.459 13.4567 351.548 13.5116 352.512 13.7588L350.817 21.6681C349.908 21.366 348.765 21.1875 347.731 21.1875C341.973 21.1875 339.19 26.323 338.171 31.3212L335.264 45.2585H327.149L332.715 18.3451Z" fill="#596B37"/>
<path d="M277.72 14.1707H283.588L284.98 7.78567L293.7 4.94328L291.703 14.1707H298.963L297.682 20.089H290.421L287.46 33.6693C287.212 34.6579 287.101 35.674 287.088 36.6901C287.088 38.5576 288.355 39.711 290.173 39.711C291.634 39.711 293.08 39.409 294.1 38.9833L292.708 45.2585C291.317 45.5606 289.746 45.9863 288.355 45.9863C282.844 45.9863 278.973 43.8167 278.973 37.8436C278.973 35.4269 279.455 33.0788 280.006 30.5934L282.307 20.1027H276.452L277.72 14.1707Z" fill="#596B37"/>
<path d="M272.54 20.5009C271.672 20.034 269.426 19.3612 267.126 19.3612C264.701 19.3612 261.684 20.034 261.684 22.4919C261.684 26.4191 272.209 27.8609 272.209 35.4681C272.209 43.5558 265.128 45.9588 258.157 45.9588C254.892 45.9588 251.627 45.4782 248.651 44.0914L250.401 37.6376C252.702 38.9009 255.002 40.0543 258.143 40.0543C260.871 40.0543 263.709 39.1481 263.709 36.6215C263.709 31.6096 253.184 31.129 253.184 23.3433C253.184 16.0382 260.265 13.443 266.685 13.443C269.647 13.443 272.678 13.9922 274.276 14.4042L272.54 20.5009Z" fill="#596B37"/>
<path d="M173.142 17.6173C173.377 16.409 173.625 15.1457 173.804 14.1708H181.367L180.637 18.3314H180.761C182.937 15.1319 186.506 13.443 190.322 13.443C194.014 13.443 197.83 15.6125 198.257 19.3475H198.381C200.447 15.3105 204.98 13.443 209.333 13.443C213.99 13.443 217.999 17.2466 217.999 21.9564C217.999 24.7302 217.268 27.8746 216.607 30.4012L213.342 45.2448H205.228L208.493 30.0991C208.906 28.2316 209.512 25.3343 209.512 23.4669C209.512 21.1737 207.763 19.7319 205.696 19.7319C200.062 19.7319 198.67 26.2543 197.651 30.4699L194.441 45.2585H186.326L189.592 30.1128C190.019 28.2454 190.625 25.3481 190.625 23.4806C190.625 21.1875 188.875 19.7457 186.809 19.7457C181.298 19.7457 179.783 26.323 178.763 30.4836L175.553 45.2722H167.439L173.142 17.6173Z" fill="#596B37"/>
<path d="M145.672 25.2794C145.672 17.3701 140.589 13.4567 132.901 13.4567C122.666 13.4567 115.171 22.7528 115.171 32.406C115.171 41.6334 121.219 45.9863 130.187 45.9863C133.521 45.9863 136.965 45.2036 140.107 44.2424L141.14 37.8436C138.109 39.2304 134.899 40.0681 131.579 40.0681C126.385 40.0681 123.354 38.2281 122.969 33.3397C122.955 33.0513 122.927 32.7767 122.927 32.4884V32.2137C122.969 30.0991 123.423 27.9982 124.25 26.0484C125.807 22.0937 128.011 19.3612 132.791 19.3612C136.18 19.3612 137.944 21.2287 137.944 24.5516C137.944 25.2794 137.875 25.9385 137.765 26.6663H126.661C125.944 29.1104 125.82 30.7445 125.793 32.2137H144.887C145.369 29.9206 145.672 27.6275 145.672 25.2794Z" fill="#596B37"/>
<path d="M84.567 25.2794C84.567 17.3701 79.4835 13.4567 71.7962 13.4567C61.5603 13.4567 54.0659 22.7528 54.0659 32.406C54.0659 41.6334 60.1138 45.9863 69.0823 45.9863C72.4162 45.9863 75.8603 45.2036 79.0013 44.2424L80.0345 37.8436C77.0037 39.2304 73.7938 40.0681 70.4737 40.0681C65.28 40.0681 62.2491 38.2281 61.8634 33.3397C61.8496 33.0513 61.8221 32.7767 61.8221 32.4884V32.2137C61.8634 30.0991 62.318 27.9982 63.1446 26.0484C64.7013 22.0937 66.9056 19.3612 71.686 19.3612C75.075 19.3612 76.8384 21.2287 76.8384 24.5516C76.8384 25.2794 76.7695 25.9385 76.6593 26.6663H65.5555C64.8391 29.1104 64.7151 30.7445 64.6876 32.2137H83.7817C84.2639 29.9206 84.567 27.6275 84.567 25.2794Z" fill="#596B37"/>
</g>
<defs>
<clipPath id="clip0_300_536">
<rect width="371" height="46" fill="white"/>
</clipPath>
</defs>
</svg>
