<svg width="49" height="49" viewBox="0 0 49 49" fill="none" xmlns="http://www.w3.org/2000/svg">
<path d="M42.875 20.4166C42.875 34.7083 24.5 46.9583 24.5 46.9583C24.5 46.9583 6.125 34.7083 6.125 20.4166C6.125 15.5433 8.06093 10.8695 11.5069 7.42354C14.9529 3.97756 19.6266 2.04163 24.5 2.04163C29.3734 2.04163 34.0471 3.97756 37.4931 7.42354C40.9391 10.8695 42.875 15.5433 42.875 20.4166Z" stroke="#3B4B1B" stroke-width="4" stroke-linecap="round" stroke-linejoin="round"/>
<path d="M24.5 26.5416C27.8827 26.5416 30.625 23.7994 30.625 20.4166C30.625 17.0339 27.8827 14.2916 24.5 14.2916C21.1173 14.2916 18.375 17.0339 18.375 20.4166C18.375 23.7994 21.1173 26.5416 24.5 26.5416Z" stroke="#3B4B1B" stroke-width="4" stroke-linecap="round" stroke-linejoin="round"/>
</svg>
