<svg width="36" height="36" viewBox="0 0 36 36" fill="none" xmlns="http://www.w3.org/2000/svg">
<path d="M18 33C26.2843 33 33 26.2843 33 18C33 9.71573 26.2843 3 18 3C9.71573 3 3 9.71573 3 18C3 26.2843 9.71573 33 18 33Z" stroke="#1E1E1E" stroke-width="4" stroke-linecap="round" stroke-linejoin="round"/>
<g clip-path="url(#clip0_374_904)">
<path d="M18 9.75V26.25M21.75 12.75H16.125C15.4288 12.75 14.7611 13.0266 14.2688 13.5188C13.7766 14.0111 13.5 14.6788 13.5 15.375C13.5 16.0712 13.7766 16.7389 14.2688 17.2312C14.7611 17.7234 15.4288 18 16.125 18H19.875C20.5712 18 21.2389 18.2766 21.7312 18.7688C22.2234 19.2611 22.5 19.9288 22.5 20.625C22.5 21.3212 22.2234 21.9889 21.7312 22.4812C21.2389 22.9734 20.5712 23.25 19.875 23.25H13.5" stroke="#1E1E1E" stroke-width="2.5" stroke-linecap="round" stroke-linejoin="round"/>
</g>
<defs>
<clipPath id="clip0_374_904">
<rect width="18" height="18" fill="white" transform="translate(9 9)"/>
</clipPath>
</defs>
</svg>
