<svg width="25" height="25" viewBox="0 0 25 25" fill="none" xmlns="http://www.w3.org/2000/svg">
<path d="M9.375 3.125H5.20833C4.6558 3.125 4.12589 3.34449 3.73519 3.73519C3.34449 4.12589 3.125 4.6558 3.125 5.20833V9.375M9.375 3.125H19.7917C20.3442 3.125 20.8741 3.34449 21.2648 3.73519C21.6555 4.12589 21.875 4.6558 21.875 5.20833V9.375M9.375 3.125V21.875M3.125 9.375V19.7917C3.125 20.3442 3.34449 20.8741 3.73519 21.2648C4.12589 21.6555 4.6558 21.875 5.20833 21.875H9.375M3.125 9.375H21.875M21.875 9.375V19.7917C21.875 20.3442 21.6555 20.8741 21.2648 21.2648C20.8741 21.6555 20.3442 21.875 19.7917 21.875H9.375" stroke="#F7F9EF" stroke-width="3" stroke-linecap="round" stroke-linejoin="round"/>
</svg>
